<svg width="1024" height="1024" viewBox="0 0 1024 1024" fill="none" xmlns="http://www.w3.org/2000/svg">
<path d="M538.392 588.145C539.015 587.968 539.635 587.787 540.25 587.588C548.637 584.89 554.557 576.945 559.094 569.77C571.914 549.494 581.089 525.408 589.743 502.692L589.756 502.658C590.623 500.383 591.484 498.121 592.344 495.879C595.12 488.633 597.861 481.354 600.606 474.063L600.61 474.052L600.617 474.035L600.617 474.033C612.879 441.465 625.219 408.69 641.14 377.838C659.345 342.561 683.396 306.109 723.113 293.549C746.715 286.085 772.545 287.68 794.572 299.275C844.321 325.462 866.302 394.857 880.308 455.33L794.471 429.092C787.517 412.747 778.323 394.226 765.644 384.443C761.114 380.947 755.684 378.643 749.885 379.433C739.983 380.782 732.131 390.368 726.754 398.017C712.809 417.852 703.276 441.743 694.159 464.592C692.722 468.192 691.296 471.766 689.865 475.294L689.196 476.943C679.524 500.787 669.84 524.662 659.111 548.051C647.82 572.66 635.199 596.846 618.961 618.575C599.017 645.259 576.452 664.397 542.637 669.279C536.908 670.195 529.631 669.589 523.954 668.714C457.928 658.531 416.811 568.711 380.985 490.45C364.259 453.911 348.685 419.891 332.269 397.673C325.809 388.928 316.196 377.835 304.813 376.243C295.6 374.954 286.95 380.607 280.863 386.981C271.455 396.83 261.922 411.053 252.762 426.855L157.198 456.069C180.336 391.665 209.493 335.329 256.963 306.42C281.165 291.681 309.024 286.068 336.76 292.917C410.072 311.022 445.857 401.484 477.32 481.021C490.508 514.358 502.936 545.775 517.049 569.14C522.502 578.166 527.845 585.534 538.392 588.145Z" fill="white"/>
<path d="M807.868 462.974C810.948 471.343 813.893 479.76 816.76 488.205L892.467 511.347C892.075 509.528 891.68 507.71 891.284 505.892C890.167 500.771 889.029 495.398 887.849 489.826L887.829 489.731L887.825 489.711L887.824 489.705L887.305 487.256L807.868 462.974Z" fill="white"/>
<path d="M828.117 522.609L827.703 521.337L899.254 543.209C900.974 551.257 902.717 559.302 904.526 567.331L836.578 546.561C835.557 544.156 834.553 541.734 833.566 539.294C831.739 533.736 829.928 528.172 828.117 522.609Z" fill="white"/>
<path d="M853.062 581.386C902.62 676.267 972 735.735 972 735.735C972 735.735 931.999 665.431 920.716 629.244C917.645 619.394 914.857 609.465 912.265 599.483L853.062 581.386Z" fill="white"/>
<path d="M145.929 489.301L233.708 462.467C229.123 471.582 224.758 480.564 220.696 488.954L138.123 514.197C140.68 505.85 143.275 497.539 145.929 489.301Z" fill="white"/>
<path d="M128.243 547.005L127.511 549.461C125.285 556.923 123.062 564.375 120.827 571.788L190.018 550.636C194.569 541.787 199.039 532.898 203.474 524.006L128.243 547.005Z" fill="white"/>
<path d="M52 735.292C76.9579 701.081 94.7068 654.7 110.665 604.682L170.993 586.239C165.228 596.545 159.261 606.726 153.015 616.724C125.695 660.452 93.1185 703.743 52 735.292Z" fill="white"/>
</svg>
