<svg width="920" height="447" viewBox="0 0 920 447" fill="none" xmlns="http://www.w3.org/2000/svg">
<path fill-rule="evenodd" clip-rule="evenodd" d="M486.392 299.145C487.015 298.968 487.635 298.787 488.25 298.588C496.637 295.89 502.557 287.945 507.094 280.77C519.914 260.494 529.089 236.408 537.743 213.692L537.756 213.658C538.623 211.383 539.484 209.121 540.344 206.879C543.12 199.633 545.861 192.354 548.606 185.063L548.61 185.052L548.617 185.035L548.617 185.034L548.617 185.033C560.879 152.465 573.219 119.69 589.14 88.8376C607.345 53.5611 631.396 17.1089 671.113 4.5485C694.715 -2.91545 720.545 -1.32025 742.572 10.2746C792.321 36.4615 814.302 105.857 828.308 166.33L742.471 140.092C735.517 123.747 726.323 105.226 713.644 95.4429C709.114 91.9467 703.684 89.6434 697.885 90.4332C687.983 91.7817 680.131 101.368 674.754 109.017C660.809 128.852 651.276 152.743 642.159 175.592C640.722 179.192 639.296 182.766 637.865 186.294L637.196 187.943C627.524 211.787 617.84 235.662 607.111 259.051C595.82 283.66 583.199 307.846 566.961 329.575C547.017 356.259 524.452 375.397 490.637 380.279C484.908 381.195 477.631 380.589 471.954 379.714C405.928 369.531 364.811 279.711 328.985 201.45L328.985 201.449C312.258 164.91 296.685 130.891 280.269 108.673C273.809 99.9278 264.196 88.8354 252.813 87.243C243.6 85.9538 234.95 91.6074 228.863 97.9814C219.455 107.83 209.922 122.053 200.762 137.855L105.198 167.069C128.336 102.665 157.493 46.3286 204.963 17.42C229.165 2.68145 257.024 -2.93206 284.76 3.9173C358.072 22.0217 393.857 112.484 425.32 192.021C438.508 225.358 450.936 256.775 465.049 280.14C470.502 289.166 475.845 296.534 486.392 299.145ZM755.868 173.974C758.948 182.343 761.893 190.76 764.76 199.205L840.467 222.347C840.075 220.528 839.68 218.71 839.284 216.892C838.167 211.771 837.029 206.398 835.849 200.826L835.829 200.731L835.825 200.711L835.824 200.705L835.305 198.256L755.868 173.974ZM776.117 233.609L775.703 232.337L847.254 254.209C848.974 262.257 850.717 270.302 852.526 278.331L784.578 257.561C783.557 255.156 782.553 252.734 781.566 250.294C779.739 244.736 777.928 239.172 776.117 233.609ZM801.062 292.386C850.62 387.267 920 446.735 920 446.735C920 446.735 879.999 376.431 868.716 340.244C865.645 330.394 862.857 320.465 860.265 310.483L801.062 292.386ZM93.9295 200.301L181.708 173.467C177.123 182.582 172.758 191.564 168.696 199.954L86.1232 225.197C88.6804 216.85 91.2748 208.539 93.9295 200.301ZM76.2431 258.005L75.5106 260.461L75.5104 260.461C73.2845 267.924 71.0622 275.375 68.8268 282.788L138.018 261.636C142.569 252.787 147.039 243.898 151.474 235.006L76.2431 258.005ZM0 446.292C24.9579 412.081 42.7068 365.7 58.6646 315.682L118.993 297.239C113.228 307.545 107.261 317.726 101.015 327.724C73.6949 371.452 41.1185 414.743 0 446.292Z" fill="white"/>
</svg>
