<svg width="477" height="120" viewBox="0 0 477 120" fill="none" xmlns="http://www.w3.org/2000/svg">
<path d="M175.063 69.7812C175.063 66 175.453 62.6406 176.235 59.7031C177.016 56.7656 178.063 54.1406 179.375 51.8281C180.719 49.4844 182.281 47.4375 184.063 45.6875C185.875 43.9375 187.813 42.4844 189.875 41.3281C193.938 39.0156 197.938 37.8594 201.875 37.8594C205.813 37.8594 208.969 38.5625 211.344 39.9688C213.719 41.3438 215.656 43.1875 217.156 45.5C219.938 49.9062 221.328 55.7656 221.328 63.0781C221.328 65.7969 220.188 67.1875 217.906 67.25L185.188 67.9531C185.375 74.7344 187.125 79.75 190.438 83C193.25 85.75 196.891 87.125 201.36 87.125C208.016 87.125 213.422 85.7344 217.578 82.9531C217.86 82.9531 218.203 83.1875 218.61 83.6562C219.391 84.5938 219.781 85.4062 219.781 86.0938C219.781 87.5938 217.906 89.5156 214.156 91.8594C209.844 94.5469 204.813 95.8906 199.063 95.8906C191.563 95.8906 185.672 93.5 181.391 88.7188C177.172 84.0312 175.063 77.7188 175.063 69.7812ZM185.469 61.9062C194.469 61.4688 202.703 60.8906 210.172 60.1719C210.516 50.2344 207.078 45.2656 199.86 45.2656C195.828 45.2656 192.531 46.8281 189.969 49.9531C187.625 52.8281 186.125 56.8125 185.469 61.9062ZM257.703 95.2344C257.047 95.0781 256.047 95 254.703 95H238.813C235.813 95 233.891 94.4688 233.047 93.4062C232.703 93 232.531 92.5312 232.531 92C232.531 90.6875 232.781 89.7188 233.281 89.0938C234.031 89.3438 234.719 89.4688 235.344 89.4688C236 89.4688 236.547 89.3906 236.985 89.2344C237.422 89.0469 237.766 88.75 238.016 88.3438C238.453 87.5938 238.672 86.125 238.672 83.9375V53.2812C238.672 50.3438 238.125 48.5156 237.031 47.7969C236.594 47.5156 236.016 47.375 235.297 47.375C234.578 47.375 234 47.4844 233.563 47.7031C233.156 47.9219 232.813 48.0781 232.531 48.1719C232.281 48.2656 232.063 48.2656 231.875 48.1719C231.688 48.0469 231.5 47.875 231.313 47.6562C230.844 47.0938 230.61 46.5625 230.61 46.0625C230.61 45.5312 230.797 44.9688 231.172 44.375C231.578 43.75 232.219 43.0469 233.094 42.2656C233.969 41.4531 234.969 40.7188 236.094 40.0625C238.625 38.5938 241.156 37.8594 243.688 37.8594C246.563 37.8594 248.266 39.7344 248.797 43.4844C248.953 44.5781 249.047 45.7188 249.078 46.9062C253.641 42.875 258.344 40.1094 263.188 38.6094C264.813 38.1094 266.281 37.8594 267.594 37.8594C268.938 37.8594 270.031 38.0469 270.875 38.4219C271.75 38.7969 272.438 39.3125 272.938 39.9688C273.875 41.25 274.344 42.8906 274.344 44.8906C274.344 46.8906 274.25 48.4844 274.063 49.6719C273.875 50.8594 273.641 51.9062 273.36 52.8125C272.797 54.6562 272.266 55.8281 271.766 56.3281C270.891 57.2344 269.719 57.6875 268.25 57.6875C266.75 57.6875 266 57.25 266 56.375C266 53.0312 265.86 50.8906 265.578 49.9531C265.047 48.2344 264.047 47.375 262.578 47.375C261.11 47.375 259.781 47.5469 258.594 47.8906C257.406 48.2031 256.25 48.6406 255.125 49.2031C252.844 50.3281 250.844 51.7812 249.125 53.5625V84.7344C249.219 87.2031 250.297 88.7031 252.36 89.2344C252.953 89.3906 253.625 89.5312 254.375 89.6562C255.125 89.7812 255.766 89.9375 256.297 90.125C256.86 90.2812 257.297 90.4688 257.61 90.6875C258.141 91.0938 258.406 91.75 258.406 92.6562C258.406 93.7812 258.172 94.6406 257.703 95.2344ZM313.25 54.5C313.25 49.6875 311.25 46.5 307.25 44.9375C305.969 44.4375 304.578 44.1875 303.078 44.1875C301.61 44.1875 300.235 44.3125 298.953 44.5625C297.703 44.8125 296.594 45.2031 295.625 45.7344C293.438 46.9219 292.344 48.625 292.344 50.8438C292.344 52.9688 293.25 54.8125 295.063 56.375C297.063 58.0312 300.781 60.0781 306.219 62.5156C311.656 64.9219 315.844 67.5625 318.781 70.4375C321.75 73.2812 323.235 76.5625 323.235 80.2812C323.235 84.4688 321.516 88 318.078 90.875C314.047 94.2188 308.469 95.8906 301.344 95.8906C292.625 95.8906 286.594 94.0312 283.25 90.3125C282.094 89 281.516 87.3281 281.516 85.2969C281.516 80.3906 282.719 77.5312 285.125 76.7188C285.719 76.5312 286.281 76.4375 286.813 76.4375C288.281 76.4375 289.078 76.8906 289.203 77.7969C289.891 85.6094 294.266 89.5156 302.328 89.5156C307.172 89.5156 310.406 88.1562 312.031 85.4375C312.563 84.5625 312.828 83.5 312.828 82.25C312.828 81 312.422 79.8594 311.61 78.8281C310.828 77.7969 309.735 76.8438 308.328 75.9688C306.922 75.0625 305.25 74.1875 303.313 73.3438L297.078 70.5312C287.516 66.1562 282.735 60.3438 282.735 53.0938C282.735 48.4062 284.813 44.6562 288.969 41.8438C292.906 39.1875 297.985 37.8594 304.203 37.8594C312.641 37.8594 317.891 39.6875 319.953 43.3438C320.485 44.2812 320.75 45.3125 320.75 46.4375C320.75 47.5625 320.688 48.5781 320.563 49.4844C320.438 50.3594 320.281 51.1562 320.094 51.875C319.781 53.25 319.422 54.2188 319.016 54.7812C318.203 55.375 317.031 55.6719 315.5 55.6719C314 55.6719 313.25 55.2812 313.25 54.5ZM344.235 29.1406C343.172 29.1406 342.188 28.9844 341.281 28.6719C340.406 28.3281 339.641 27.8437 338.985 27.2188C337.61 25.9062 336.922 24.1406 336.922 21.9219C336.922 19.7969 337.735 18 339.36 16.5312C340.922 15.0625 342.797 14.3281 344.985 14.3281C347.172 14.3281 348.922 14.9844 350.235 16.2969C351.547 17.6094 352.203 19.3906 352.203 21.6406C352.203 23.7656 351.422 25.5625 349.86 27.0312C348.328 28.4375 346.453 29.1406 344.235 29.1406ZM341.375 95C336.563 95 334.156 93.9062 334.156 91.7188C334.156 90.5938 334.406 89.7188 334.906 89.0938C335.656 89.3438 336.344 89.4688 336.969 89.4688C339.875 89.4688 341.297 87.625 341.235 83.9375V52.5312C341.235 50.3438 340.922 48.8281 340.297 47.9844C339.703 47.1094 338.625 46.6719 337.063 46.6719C335.906 46.6719 334.86 46.8125 333.922 47.0938C333.36 47.1562 332.953 46.7188 332.703 45.7812C332.485 44.9375 332.61 44.2031 333.078 43.5781C333.547 42.9219 334.266 42.25 335.235 41.5625C336.235 40.8438 337.328 40.2188 338.516 39.6875C341.078 38.4688 343.219 37.8594 344.938 37.8594C346.656 37.8594 347.922 38.1094 348.735 38.6094C349.578 39.1094 350.219 39.7812 350.656 40.625C351.344 42 351.688 44.2188 351.688 47.2812V84.7344C351.781 87.2031 352.672 88.7031 354.36 89.2344C354.828 89.3906 355.406 89.5312 356.094 89.6562C356.781 89.7812 357.391 89.9375 357.922 90.125C358.485 90.2812 358.922 90.4688 359.235 90.6875C359.766 91.0938 360.031 91.75 360.031 92.6562C360.031 93.7812 359.797 94.6406 359.328 95.2344C358.672 95.0781 357.672 95 356.328 95H341.375ZM384.266 92.7031C373.828 65.4531 368.453 51.3906 368.141 50.5156C367.828 49.6094 367.5 48.7812 367.156 48.0312C366.375 46.2812 365.672 45.4062 365.047 45.4062C364.641 45.4062 364.188 45.4531 363.688 45.5469C363.188 45.6406 362.781 45.4688 362.469 45.0312C362.156 44.5938 362 44.0469 362 43.3906C362 42.7344 362.297 42.0625 362.891 41.375C363.516 40.6875 364.281 40.0938 365.188 39.5938C367.156 38.4375 368.719 37.8594 369.875 37.8594C371.031 37.8594 371.953 37.8906 372.641 37.9531C373.328 38.0156 373.969 38.25 374.563 38.6562C375.813 39.4688 376.86 41.2188 377.703 43.9062L391.438 84.875C393.625 80.4688 395.25 77.0938 396.313 74.75L399.219 67.9062C402.719 59.2812 404.469 53.2188 404.469 49.7188V49.1094C404.469 47.5469 404.11 46.3125 403.391 45.4062C402.703 44.5 401.469 43.9531 399.688 43.7656C399.375 43.2656 399.219 42.75 399.219 42.2188C399.219 41.6562 399.516 41.1094 400.11 40.5781C400.735 40.0156 401.516 39.5312 402.453 39.125C404.391 38.2812 406.5 37.8594 408.781 37.8594C411.094 37.8594 412.875 38.2188 414.125 38.9375C415.406 39.625 416.047 41 416.047 43.0625C416.047 47.4375 413.078 56.1406 407.141 69.1719L402.875 78.125C399.938 84.0625 397.719 88.0938 396.219 90.2188C393.531 94 391.172 95.8906 389.141 95.8906C387.672 95.8906 386.36 95.3125 385.203 94.1562C384.797 93.75 384.485 93.2656 384.266 92.7031ZM424.719 69.7812C424.719 66 425.11 62.6406 425.891 59.7031C426.672 56.7656 427.719 54.1406 429.031 51.8281C430.375 49.4844 431.938 47.4375 433.719 45.6875C435.531 43.9375 437.469 42.4844 439.531 41.3281C443.594 39.0156 447.594 37.8594 451.531 37.8594C455.469 37.8594 458.625 38.5625 461 39.9688C463.375 41.3438 465.313 43.1875 466.813 45.5C469.594 49.9062 470.985 55.7656 470.985 63.0781C470.985 65.7969 469.844 67.1875 467.563 67.25L434.844 67.9531C435.031 74.7344 436.781 79.75 440.094 83C442.906 85.75 446.547 87.125 451.016 87.125C457.672 87.125 463.078 85.7344 467.235 82.9531C467.516 82.9531 467.86 83.1875 468.266 83.6562C469.047 84.5938 469.438 85.4062 469.438 86.0938C469.438 87.5938 467.563 89.5156 463.813 91.8594C459.5 94.5469 454.469 95.8906 448.719 95.8906C441.219 95.8906 435.328 93.5 431.047 88.7188C426.828 84.0312 424.719 77.7188 424.719 69.7812ZM435.125 61.9062C444.125 61.4688 452.36 60.8906 459.828 60.1719C460.172 50.2344 456.735 45.2656 449.516 45.2656C445.485 45.2656 442.188 46.8281 439.625 49.9531C437.281 52.8281 435.781 56.8125 435.125 61.9062Z" fill="black"/>
<path fill-rule="evenodd" clip-rule="evenodd" d="M87.8107 68.8045C87.9233 68.7727 88.0352 68.7399 88.1462 68.7041C89.6603 68.217 90.7291 66.7826 91.5481 65.4873C93.8625 61.8268 95.519 57.4786 97.0812 53.3776L97.0813 53.3774C97.2386 52.9646 97.3949 52.5542 97.5508 52.1473C98.0527 50.8375 98.5482 49.5215 99.0444 48.2037C101.258 42.3239 103.486 36.4067 106.36 30.8368C109.647 24.4681 113.989 17.8872 121.159 15.6196C125.42 14.2721 130.083 14.5601 134.06 16.6534C143.041 21.381 147.01 33.9091 149.538 44.8265L134.042 40.0896C132.786 37.1388 131.127 33.7954 128.838 32.0292C128.02 31.398 127.039 30.9822 125.993 31.1248C124.205 31.3683 122.787 33.0988 121.817 34.4798C119.299 38.0608 117.578 42.3739 115.932 46.4989C115.673 47.1488 115.415 47.7941 115.157 48.4311L115.036 48.7289L115.036 48.7291L115.036 48.7293L115.036 48.7295L115.036 48.7297L115.036 48.7299C113.29 53.0342 111.541 57.344 109.605 61.5661C107.566 66.009 105.288 70.3755 102.356 74.2982C98.7556 79.1156 94.6818 82.5707 88.577 83.4521C87.5427 83.6175 86.2291 83.5081 85.2041 83.3501C73.2842 81.5116 65.8611 65.296 59.3933 51.1671C56.3735 44.5705 53.562 38.4288 50.5983 34.4176C49.4321 32.8389 47.6966 30.8363 45.6416 30.5489C43.9783 30.3161 42.4167 31.3368 41.3177 32.4875C39.6193 34.2655 37.8983 36.8332 36.2446 39.6859L18.992 44.9601C23.1692 33.333 28.4331 23.1624 37.003 17.9434C41.3722 15.2826 46.4017 14.2691 51.409 15.5057C64.6444 18.7741 71.1049 35.1058 76.7851 49.465C79.1659 55.4834 81.4096 61.1552 83.9576 65.3735C84.9419 67.0029 85.9065 68.3332 87.8107 68.8045ZM136.46 46.2065C137.017 47.7176 137.548 49.2374 138.066 50.7622L151.734 54.9401C151.663 54.6116 151.592 54.2833 151.52 53.955C151.317 53.0257 151.111 52.0502 150.896 51.0386L150.895 51.0327L150.802 50.5902L136.46 46.2065ZM140.116 56.9729L140.042 56.7437L152.959 60.6922C153.269 62.1454 153.584 63.5978 153.911 65.0472L141.644 61.2975C141.459 60.8633 141.278 60.4258 141.1 59.9853C140.772 58.9891 140.448 57.9921 140.123 56.9951L140.123 56.9943L140.121 56.989L140.12 56.9836L140.118 56.9783L140.116 56.9729ZM144.62 67.5847C153.567 84.7138 166.092 95.4498 166.092 95.4498C166.092 95.4498 158.871 82.7574 156.833 76.2243C156.279 74.4462 155.776 72.6538 155.308 70.8518L144.62 67.5847ZM16.9576 50.9596L32.8047 46.1151C31.9769 47.7607 31.1889 49.3825 30.4554 50.8973L15.5482 55.4545C16.0099 53.9473 16.4783 52.4469 16.9576 50.9596ZM13.7645 61.3774L13.6323 61.8208C13.2304 63.168 12.8292 64.5131 12.4257 65.8514L24.9172 62.0327C25.7387 60.4352 26.5457 58.8306 27.3463 57.2253L13.7645 61.3774ZM0 95.3698C4.5058 89.1935 7.71011 80.82 10.5911 71.7899L21.4824 68.4603C20.4416 70.3209 19.3643 72.159 18.2367 73.9641C13.3045 81.8586 7.42333 89.674 0 95.3698Z" fill="url(#paint0_linear_731_3)"/>
<defs>
<linearGradient id="paint0_linear_731_3" x1="4.25825e-07" y1="16.2844" x2="344.602" y2="97.002" gradientUnits="userSpaceOnUse">
<stop stop-color="#0E9FD0"/>
<stop offset="1" stop-color="#2959A1"/>
</linearGradient>
</defs>
</svg>
