<svg width="32" height="32" viewBox="0 0 32 32" fill="none" xmlns="http://www.w3.org/2000/svg">
<rect x="2" y="14" width="16" height="16" fill="#E8EAED"/>
<path d="M28.25 10.6152V3.75H21.3848V2H30V10.6152H28.25ZM2 30V21.3847H3.75V28.25H10.6153V30H2ZM2 17.0771V14.9229H4.15381V17.0771H2ZM2 10.6152V8.46144H4.15381V10.6152H2ZM2 4.15381V2H4.15381V4.15381H2ZM8.46144 4.15381V2H10.6153V4.15381H8.46144ZM14.9229 30V27.8462H17.0771V30H14.9229ZM14.9229 4.15381V2H17.0771V4.15381H14.9229ZM21.3848 30V27.8462H23.5386V30H21.3848ZM27.8462 30V27.8462H30V30H27.8462ZM27.8462 23.5386V21.3847H30V23.5386H27.8462ZM27.8462 17.0771V14.9229H30V17.0771H27.8462Z" fill="#E8EAED"/>
</svg>
